<?xml version="1.0" encoding="utf-8"?>
<!-- Generator: Adobe Illustrator 25.3.1, SVG Export Plug-In . SVG Version: 6.00 Build 0)  -->
<svg version="1.1" id="Calque_1" xmlns="http://www.w3.org/2000/svg" xmlns:xlink="http://www.w3.org/1999/xlink" x="0px" y="0px"
	 viewBox="0 0 1920 200" style="enable-background:new 0 0 1920 200;" xml:space="preserve">
<style type="text/css">
	.st0{fill:none;}
	.st1{fill:#DEF2FA;}
	.st2{fill:#F0C431;}
	.st3{fill:#F09989;}
	.st4{fill:#87D2E8;}
	.st5{fill:#EBD1B2;}
	.st6{fill:#10335D;}
</style>
<g>
	<path class="st0" d="M1885.2,102.5c12.9,0,24.9,4,34.8,10.8V0h-161.6c16,12.1,26.3,31.4,26.3,53c0,36.7-29.8,66.5-66.5,66.5
		s-66.5-29.8-66.5-66.5c0-21.6,10.3-40.9,26.3-53h-201.2l-70.3,45.6c-3.4,2.2-7.1,3.2-10.9,3.2c-6.5,0-13-3.2-16.8-9.1
		c-6-9.3-3.4-21.7,5.9-27.7l18.7-12h-177l55.4,57.6c7.7,8,7.4,20.6-0.6,28.3c-3.9,3.7-8.9,5.6-13.9,5.6c-5.3,0-10.5-2.1-14.4-6.1
		l-74-77c-2.3-2.4-3.9-5.3-4.8-8.4H916.3c3.5,7.4,5.4,15.7,5.4,24.5c0,32-26,58-58,58s-58-26-58-58c0-8.8,2-17.1,5.4-24.5h-251
		c5.5,8.9,8.7,19.3,8.7,30.5c0,32-26,58-58,58s-58-26-58-58c0-11.2,3.2-21.6,8.7-30.5H333.4l55.4,57.6c7.7,8,7.4,20.6-0.6,28.3
		c-3.9,3.7-8.9,5.6-13.9,5.6c-5.3,0-10.5-2.1-14.4-6.1l-74-77C283.6,5.9,282,3,281.1,0H98c5.6,9.7,8.8,21,8.8,33
		c0,36.7-29.8,66.5-66.5,66.5c-15.1,0-29.1-5.1-40.2-13.6V200h250.5c-4.3-8.4-6.7-17.9-6.7-28c0-34,27.5-61.5,61.5-61.5
		s61.5,27.5,61.5,61.5c0,10.1-2.4,19.6-6.7,28h67.7c1.4-2.6,3.4-5,6-6.8l106-75c9-6.4,21.5-4.2,27.9,4.8s4.2,21.5-4.8,27.9
		L493.3,200h356.9l-48.3-50.3c-7.7-8-7.4-20.6,0.6-28.3s20.6-7.4,28.3,0.6l74,77c0.3,0.3,0.6,0.7,0.9,1h307l-49.6-51.6
		c-7.7-8-7.4-20.6,0.6-28.3s20.6-7.4,28.3,0.6l74,77c0.7,0.7,1.3,1.5,1.9,2.4h98.8c-17.2-10.9-28.7-30.1-28.7-52
		c0-34,27.5-61.5,61.5-61.5s61.5,27.5,61.5,61.5c0,21.9-11.5,41.1-28.7,52h403.3c-7.3-10.1-11.7-22.6-11.7-36
		C1823.8,130,1851.3,102.5,1885.2,102.5z M234.5,84.6l-131,85c-3.4,2.2-7.1,3.2-10.9,3.2c-6.5,0-13-3.2-16.8-9.1
		c-6-9.3-3.4-21.7,5.9-27.7l131-85c9.3-6,21.7-3.4,27.7,5.9C246.4,66.2,243.8,78.6,234.5,84.6z M687.2,156.5
		c-34,0-61.5-27.5-61.5-61.5s27.5-61.5,61.5-61.5S748.8,61,748.8,95S721.2,156.5,687.2,156.5z M1101.6,84.3l-131,85
		c-3.4,2.2-7.1,3.2-10.9,3.2c-6.5,0-13-3.2-16.8-9.1c-6-9.3-3.4-21.7,5.9-27.7l131-85c9.3-6,21.7-3.4,27.7,5.9
		S1110.9,78.3,1101.6,84.3z M1619.1,193.9c-3.9,3.7-8.9,5.6-13.9,5.6c-5.3,0-10.5-2.1-14.4-6.1l-74-77c-7.7-8-7.4-20.6,0.6-28.3
		s20.6-7.4,28.3,0.6l74,77C1627.3,173.6,1627.1,186.3,1619.1,193.9z"/>
</g>
<path class="st1" d="M106.8,33c0-12-3.2-23.3-8.8-33H0v85.9c11.2,8.5,25.1,13.6,40.2,13.6C77,99.5,106.8,69.7,106.8,33z"/>
<path class="st1" d="M1651.8,53c0,36.7,29.8,66.5,66.5,66.5s66.5-29.8,66.5-66.5c0-21.6-10.3-40.9-26.3-53h-80.3
	C1662.1,12.1,1651.8,31.4,1651.8,53z"/>
<path class="st2" d="M567.6,122.9c-6.4-9-18.9-11.2-27.9-4.8l-106,75c-2.6,1.8-4.6,4.2-6,6.8h65.6l69.5-49.2
	C571.8,144.4,574,132,567.6,122.9z"/>
<path class="st3" d="M212.7,51.1l-131,85c-9.3,6-11.9,18.4-5.9,27.7c3.8,5.9,10.2,9.1,16.8,9.1c3.7,0,7.5-1,10.9-3.2l131-85
	c9.3-6,11.9-18.4,5.9-27.7C234.4,47.7,222,45.1,212.7,51.1z"/>
<path class="st3" d="M1378.9,39.8c3.8,5.9,10.2,9.1,16.8,9.1c3.7,0,7.5-1,10.9-3.2L1476.9,0h-73.5l-18.6,12.1
	C1375.5,18.1,1372.8,30.5,1378.9,39.8z"/>
<path class="st3" d="M1079.9,50.7l-131,85c-9.3,6-11.9,18.4-5.9,27.7c3.8,5.9,10.2,9.1,16.8,9.1c3.7,0,7.5-1,10.9-3.2l131-85
	c9.3-6,11.9-18.4,5.9-27.7C1101.5,47.3,1089.1,44.7,1079.9,50.7z"/>
<g>
	<circle class="st0" cx="305.2" cy="172" r="21.5"/>
</g>
<g>
	<path class="st0" d="M360,200L360,200c4.3-8.4,6.8-17.9,6.8-28C366.8,182.1,364.3,191.6,360,200z"/>
</g>
<g>
	<path class="st0" d="M305.2,110.5c-34,0-61.5,27.5-61.5,61.5C243.8,138.1,271.3,110.5,305.2,110.5z"/>
</g>
<g>
	<path class="st0" d="M366.8,172c0-34-27.5-61.5-61.5-61.5C339.2,110.5,366.8,138.1,366.8,172z"/>
</g>
<g>
	<path class="st0" d="M243.8,172c0,10.1,2.4,19.6,6.7,28l0,0C246.2,191.6,243.8,182.1,243.8,172z"/>
</g>
<path class="st4" d="M360,200c4.3-8.4,6.8-17.9,6.8-28c0-33.9-27.6-61.5-61.5-61.5s-61.5,27.6-61.5,61.5c0,10.1,2.5,19.6,6.8,28H360
	z M305.2,150.5c11.9,0,21.5,9.6,21.5,21.5s-9.6,21.5-21.5,21.5s-21.5-9.6-21.5-21.5S293.4,150.5,305.2,150.5z"/>
<g>
	<path class="st0" d="M1399.2,86.5c-34,0-61.5,27.5-61.5,61.5C1337.8,114.1,1365.3,86.5,1399.2,86.5z"/>
</g>
<g>
	<path class="st0" d="M1337.8,148c0,21.9,11.5,41.1,28.7,52l0,0C1349.2,189.1,1337.8,169.9,1337.8,148z"/>
</g>
<g>
	<path class="st0" d="M1460.8,148c0-34-27.5-61.5-61.5-61.5C1433.2,86.5,1460.8,114.1,1460.8,148z"/>
</g>
<g>
	<circle class="st0" cx="1399.2" cy="148" r="21.5"/>
</g>
<g>
	<path class="st0" d="M1460.8,148c0,21.9-11.5,41.1-28.7,52l0,0C1449.3,189.1,1460.8,169.9,1460.8,148z"/>
</g>
<path class="st4" d="M1366.5,200h65.6c17.2-10.9,28.7-30.1,28.7-52c0-33.9-27.6-61.5-61.5-61.5s-61.5,27.6-61.5,61.5
	C1337.8,169.9,1349.2,189.1,1366.5,200z M1399.2,126.5c11.9,0,21.5,9.6,21.5,21.5s-9.6,21.5-21.5,21.5s-21.5-9.6-21.5-21.5
	S1387.4,126.5,1399.2,126.5z"/>
<g>
	<path class="st0" d="M687.2,156.5c34,0,61.5-27.5,61.5-61.5C748.8,128.9,721.2,156.5,687.2,156.5z"/>
</g>
<g>
	<circle class="st0" cx="687.2" cy="95" r="21.5"/>
</g>
<g>
	<path class="st0" d="M625.8,95c0,34,27.5,61.5,61.5,61.5C653.3,156.5,625.8,128.9,625.8,95z"/>
</g>
<g>
	<path class="st0" d="M687.2,33.5c33.9,0,61.5,27.6,61.5,61.5C748.8,61,721.2,33.5,687.2,33.5z"/>
</g>
<g>
	<path class="st0" d="M687.2,33.5c-34,0-61.5,27.5-61.5,61.5C625.8,61.1,653.3,33.5,687.2,33.5z"/>
</g>
<path class="st3" d="M687.2,33.5c-33.9,0-61.5,27.6-61.5,61.5s27.6,61.5,61.5,61.5s61.5-27.6,61.5-61.5S721.2,33.5,687.2,33.5z
	 M687.2,116.5c-11.9,0-21.5-9.6-21.5-21.5s9.6-21.5,21.5-21.5s21.5,9.6,21.5,21.5C708.8,106.9,699.1,116.5,687.2,116.5z"/>
<g>
	<path class="st0" d="M1920,113.3L1920,113.3c-9.9-6.8-21.9-10.8-34.8-10.8C1898.1,102.5,1910.1,106.5,1920,113.3z"/>
</g>
<g>
	<path class="st0" d="M1823.8,164c0,13.4,4.3,25.9,11.7,36l0,0C1828.1,189.9,1823.8,177.4,1823.8,164z"/>
</g>
<g>
	<path class="st0" d="M1885.2,102.5c-34,0-61.5,27.5-61.5,61.5C1823.8,130.1,1851.3,102.5,1885.2,102.5z"/>
</g>
<g>
	<circle class="st0" cx="1885.2" cy="164" r="21.5"/>
</g>
<path class="st3" d="M1823.8,164c0,13.4,4.3,25.9,11.7,36h84.6v-86.7c-9.9-6.8-21.9-10.8-34.8-10.8
	C1851.3,102.5,1823.8,130.1,1823.8,164z M1906.8,164c0,11.9-9.6,21.5-21.5,21.5s-21.5-9.6-21.5-21.5s9.6-21.5,21.5-21.5
	S1906.8,152.1,1906.8,164z"/>
<path class="st5" d="M359.9,85.4c3.9,4.1,9.2,6.1,14.4,6.1c5,0,10-1.9,13.9-5.6c8-7.7,8.2-20.3,0.6-28.3L333.4,0h-52.2
	c0.9,3,2.5,5.9,4.8,8.4L359.9,85.4z"/>
<path class="st5" d="M1545.7,88.6c-7.7-8-20.3-8.2-28.3-0.6c-8,7.7-8.2,20.3-0.6,28.3l74,77c3.9,4.1,9.2,6.1,14.4,6.1
	c5,0,10-1.9,13.9-5.6c8-7.7,8.2-20.3,0.6-28.3L1545.7,88.6z"/>
<path class="st2" d="M1252.9,85.4c3.9,4.1,9.2,6.1,14.4,6.1c5,0,10-1.9,13.9-5.6c8-7.7,8.2-20.3,0.6-28.3L1226.4,0h-52.2
	c0.9,3,2.5,5.9,4.8,8.4L1252.9,85.4z"/>
<path class="st6" d="M830.7,122c-7.7-8-20.3-8.2-28.3-0.6c-8,7.7-8.2,20.3-0.6,28.3l48.3,50.3h55.4c-0.3-0.3-0.6-0.7-0.9-1
	L830.7,122z"/>
<path class="st6" d="M1191.8,120.6c-7.7-8-20.3-8.2-28.3-0.6c-8,7.7-8.2,20.3-0.6,28.3l49.6,51.6h55.1c-0.6-0.8-1.2-1.6-1.9-2.4
	L1191.8,120.6z"/>
<path class="st1" d="M510.8,88.5c32,0,58-26,58-58c0-11.2-3.2-21.6-8.7-30.5h-98.7c-5.5,8.9-8.7,19.3-8.7,30.5
	C452.8,62.5,478.7,88.5,510.8,88.5z"/>
<path class="st1" d="M863.8,82.5c32,0,58-26,58-58c0-8.8-2-17.1-5.4-24.5H811.2c-3.5,7.4-5.4,15.7-5.4,24.5
	C805.8,56.5,831.7,82.5,863.8,82.5z"/>
</svg>
